<svg xmlns="http://www.w3.org/2000/svg" viewBox="0 0 2048 2048" width="2048" height="2048">
  <path d="M 942 1012 L 918 1032 L 901 1052 L 887 1074 L 872 1109 L 863 1154 L 863 1337 L 858 1359 L 849 1367 L 844 1368 L 844 1370 L 880 1368 L 953 1369 L 953 1367 L 950 1366 L 943 1357 L 939 1337 L 939 1105 L 943 1086 L 949 1071 L 964 1048 L 972 1040 L 989 1028 L 1013 1020 L 1039 1021 L 1054 1026 L 1069 1035 L 1087 1053 L 1099 1073 L 1104 1086 L 1108 1105 L 1108 1335 L 1104 1356 L 1097 1365 L 1092 1367 L 1092 1370 L 1121 1368 L 1197 1369 L 1197 1367 L 1188 1358 L 1184 1338 L 1184 1157 L 1181 1135 L 1170 1096 L 1160 1075 L 1138 1042 L 1120 1024 L 1100 1009 L 1074 996 L 1045 988 L 1010 987 L 988 991 L 972 996 Z M 653 637 L 636 660 L 620 689 L 608 720 L 602 746 L 599 771 L 599 800 L 603 841 L 612 885 L 619 903 L 631 926 L 644 943 L 657 956 L 682 974 L 742 1001 L 758 1006 L 759 1011 L 733 1018 L 706 1033 L 684 1053 L 662 1083 L 635 1138 L 617 1193 L 600 1267 L 593 1286 L 579 1310 L 562 1328 L 544 1341 L 520 1352 L 484 1359 L 485 1371 L 621 1370 L 656 1364 L 676 1353 L 692 1332 L 703 1307 L 723 1238 L 751 1124 L 756 1109 L 768 1084 L 782 1065 L 796 1051 L 812 1039 L 840 1025 L 872 1016 L 884 1015 L 885 1013 L 884 999 L 843 996 L 818 991 L 788 979 L 774 970 L 761 958 L 746 938 L 733 909 L 724 871 L 720 833 L 720 777 L 723 740 L 733 696 L 749 662 L 757 651 L 773 635 L 791 623 L 816 613 L 859 605 L 886 605 L 906 610 L 923 618 L 933 625 L 948 641 L 955 652 L 964 673 L 968 687 L 972 718 L 973 977 L 1010 969 L 1037 969 L 1075 977 L 1075 720 L 1079 688 L 1084 670 L 1090 656 L 1103 636 L 1121 620 L 1141 610 L 1161 605 L 1187 605 L 1220 610 L 1245 618 L 1263 627 L 1283 643 L 1297 660 L 1310 685 L 1319 713 L 1324 739 L 1327 775 L 1327 835 L 1323 872 L 1314 910 L 1298 943 L 1288 956 L 1269 973 L 1249 984 L 1229 991 L 1204 996 L 1163 999 L 1162 1013 L 1163 1015 L 1179 1017 L 1207 1025 L 1235 1039 L 1251 1051 L 1265 1065 L 1280 1086 L 1296 1124 L 1330 1261 L 1344 1307 L 1358 1337 L 1374 1355 L 1394 1365 L 1425 1370 L 1563 1371 L 1563 1359 L 1528 1352 L 1503 1341 L 1485 1328 L 1467 1308 L 1458 1294 L 1450 1276 L 1445 1260 L 1435 1211 L 1416 1149 L 1399 1108 L 1387 1086 L 1365 1055 L 1341 1033 L 1316 1019 L 1289 1011 L 1290 1006 L 1358 978 L 1375 968 L 1389 957 L 1404 942 L 1419 921 L 1430 899 L 1440 866 L 1448 804 L 1448 769 L 1445 746 L 1439 720 L 1430 695 L 1419 673 L 1403 648 L 1388 630 L 1361 605 L 1343 592 L 1313 576 L 1286 566 L 1265 561 L 1224 557 L 1091 557 L 1084 560 L 1027 662 L 1021 663 L 977 584 L 960 557 L 826 557 L 782 561 L 761 566 L 730 578 L 711 588 L 686 605 Z M 810 415 L 814 425 L 879 538 L 968 538 L 1022 633 L 1025 633 L 1079 538 L 1168 538 L 1237 418 L 1237 415 L 1118 415 L 1080 480 L 1076 480 L 1025 390 L 1023 390 L 971 480 L 967 480 L 929 415 Z M 1021 450 L 1027 451 L 1060 509 L 1059 516 L 1026 573 L 1020 572 L 987 514 L 988 507 Z M 1187 444 L 1186 451 L 1155 506 L 1151 510 L 1099 509 L 1099 503 L 1134 443 Z M 860 444 L 913 443 L 948 504 L 948 509 L 896 510 L 888 499 L 861 451 Z" fill="#2C2118" fill-rule="evenodd"/>
  <text x="1024.0" y="1510" text-anchor="middle" fill="#2C2118"
        font-family="Times New Roman, Georgia, serif" font-size="82" letter-spacing="-2">
    RNR GOLD JEWELRY
  </text>
</svg>
